<?xml version="1.0" encoding="UTF-8"?>
<svg width="159px" height="27px" viewBox="0 0 159 27" version="1.1" xmlns="http://www.w3.org/2000/svg" xmlns:xlink="http://www.w3.org/1999/xlink">
    <!-- Generator: Sketch 57.1 (83088) - https://sketch.com -->
    <title>LOGO</title>
    <desc>Created with Sketch.</desc>
    <defs>
        <polygon id="path-1" points="0.9974 0.819774194 16.183 0.819774194 16.183 9.29235484 0.9974 9.29235484"></polygon>
        <polygon id="path-3" points="0.1836 0.330967742 8.1916 0.330967742 8.1916 8.46125806 0.1836 8.46125806"></polygon>
    </defs>
    <g id="V2" stroke="none" stroke-width="1" fill="none" fill-rule="evenodd">
        <g id="MVP---HOME---DESKTOP---WIDEST" transform="translate(-640.000000, -30.000000)">
            <g id="MENU-BAR">
                <g id="LOGO" transform="translate(640.000000, 29.000000)">
                    <path d="M8.7785,14.693129 C9.2165,14.1502258 9.7385,13.8782903 10.3455,13.8782903 C11.1765,13.8782903 11.6715,14.3563548 11.8285,15.3134516 L19.7475,15.3134516 C19.7255,12.9211935 18.9555,11.0515161 17.4395,9.70345161 C15.9235,8.35635484 13.8835,7.68183871 11.3225,7.68183871 C9.4805,7.68183871 7.7785,8.03506452 6.2175,8.74151613 C4.6555,9.44893548 3.3535,10.4650645 2.3085,11.790871 C1.2635,13.1176452 0.5725,14.6718387 0.2365,16.4544194 C0.0785,17.4115161 0.0005,18.1828065 0.0005,18.7692581 C0.0005,21.1828065 0.7465,23.0805484 2.2405,24.4605484 C3.7355,25.8415161 5.7285,26.5315161 8.2225,26.5315161 C10.6935,26.5315161 12.9015,25.8579677 14.8445,24.5099032 C16.7875,23.1618387 18.1975,21.2921613 19.0735,18.900871 L11.1545,18.900871 C10.7045,19.857 10.0535,20.3350645 9.1995,20.3350645 C8.7285,20.3350645 8.3575,20.1666774 8.0885,19.8299032 C7.8185,19.493129 7.6835,18.987 7.6835,18.3134516 C7.6835,18.1179677 7.7285,17.7153871 7.8185,17.1066774 C8.0205,16.0421613 8.3405,15.237 8.7785,14.693129" id="Fill-1" fill="#1E3149"></path>
                    <path d="M36.9343,7.77958065 C35.6083,7.77958065 34.4073,8.04570968 33.3293,8.57893548 C32.2503,9.11119355 31.3293,9.81280645 30.5653,10.6818387 L32.1153,2.17054839 L24.6343,2.17054839 L20.2533,26.303129 L27.7343,26.303129 L29.5543,16.193129 C29.7783,15.4111935 30.1663,14.8024839 30.7173,14.367 C31.2673,13.9324839 31.9243,13.7147419 32.6883,13.7147419 C33.3843,13.7147419 33.9233,13.8995806 34.3063,14.2692581 C34.6873,14.6389355 34.8783,15.1605484 34.8783,15.8350645 C34.8783,15.9647419 34.8563,16.2047419 34.8113,16.5521613 L33.0593,26.303129 L40.5063,26.303129 L42.4273,15.6395806 C42.5623,14.8779677 42.6293,14.183129 42.6293,13.5521613 C42.6293,11.7473226 42.1353,10.3344194 41.1473,9.31248387 C40.1583,8.29054839 38.7543,7.77958065 36.9343,7.77958065" id="Fill-3" fill="#1E3149"></path>
                    <path d="M57.592,17.1063871 C57.412,18.0847742 57.013,18.8463871 56.396,19.3892903 C55.778,19.9331613 55.065,20.2050968 54.256,20.2050968 C53.559,20.2050968 53.009,20.0038065 52.605,19.6012258 C52.2,19.1996129 51.998,18.6286452 51.998,17.8892903 C51.998,17.5631613 52.02,17.3028387 52.065,17.1063871 C52.245,16.128 52.643,15.3673548 53.261,14.8244516 C53.88,14.2805806 54.593,14.0086452 55.402,14.0086452 C56.098,14.0086452 56.648,14.2099355 57.053,14.6115484 C57.457,15.014129 57.659,15.5850968 57.659,16.3234839 C57.659,16.6496129 57.636,16.9109032 57.592,17.1063871 L57.592,17.1063871 Z M59.277,7.90993548 L58.805,10.4212258 C58.49,9.57348387 57.895,8.90477419 57.019,8.41606452 C56.143,7.9263871 55.042,7.68154839 53.717,7.68154839 C52.301,7.68154839 50.947,8.02993548 49.656,8.72477419 C48.364,9.42154839 47.263,10.4328387 46.353,11.7586452 C45.444,13.0844516 44.82,14.6502581 44.483,16.454129 C44.303,17.541871 44.214,18.4873548 44.214,19.2915484 C44.214,21.5744516 44.78,23.3521935 45.915,24.6238065 C47.05,25.8954194 48.616,26.5312258 50.616,26.5312258 C51.852,26.5312258 52.964,26.2873548 53.952,25.7976774 C54.941,25.3089677 55.75,24.6402581 56.379,23.7925161 L55.907,26.3028387 L63.355,26.3028387 L66.725,7.90993548 L59.277,7.90993548 Z" id="Fill-5" fill="#1E3149"></path>
                    <path d="M80.2043,8.7416129 C78.9913,9.38322581 77.9013,10.2367742 76.9353,11.3022581 L77.5423,7.91032258 L70.0603,7.91032258 L66.7253,26.3032258 L74.2053,26.3032258 L75.5873,18.7693548 C75.7893,17.5519355 76.2663,16.7051613 77.0193,16.226129 C77.7723,15.7480645 78.8563,15.5090323 80.2713,15.5090323 L82.3943,15.5090323 L83.8103,7.77967742 C82.6193,7.77967742 81.4173,8.1 80.2043,8.7416129" id="Fill-7" fill="#1E3149"></path>
                    <polygon id="Fill-9" fill="#1E3149" points="86.843 2.17016129 82.462 26.3027419 89.943 26.3027419 94.324 2.17016129"></polygon>
                    <polygon id="Fill-11" fill="#1E3149" points="96.1457 9.47264516 93.0897 26.3036129 100.5717 26.3036129 103.6267 9.47264516"></polygon>
                    <polygon id="Fill-13" fill="#1E3149" points="104.9524 2.17016129 97.4714 2.17016129 96.4294 7.90887097 103.9104 7.90887097"></polygon>
                    <path d="M116.6999,15.4109032 L112.2179,15.4109032 C112.6899,14.0405806 113.5989,13.3563871 114.9469,13.3563871 C115.4639,13.3563871 115.8909,13.4870323 116.2279,13.7473548 C116.5649,14.0086452 116.7339,14.3996129 116.7339,14.9212258 C116.7339,15.1389677 116.7219,15.3025161 116.6999,15.4109032 M121.9909,9.62187097 C120.5079,8.32896774 118.5079,7.68154839 115.9919,7.68154839 C114.1049,7.68154839 112.3639,8.0463871 110.7689,8.77412903 C109.1739,9.50283871 107.8369,10.551871 106.7589,11.9212258 C105.6799,13.2915484 104.9719,14.8999355 104.6359,16.7473548 C104.5009,17.5302581 104.4329,18.2705806 104.4329,18.9654194 C104.4329,21.3354194 105.1629,23.1886452 106.6239,24.5260645 C108.0839,25.8625161 110.0609,26.5312258 112.5549,26.5312258 C115.0489,26.5312258 117.2329,25.8954194 119.1089,24.6238065 C120.9849,23.3521935 122.3159,21.7050968 123.1029,19.6834839 L115.1829,19.6834839 C114.7119,20.4005806 114.0599,20.7586452 113.2289,20.7586452 C112.7119,20.7586452 112.3129,20.6338065 112.0329,20.384129 C111.7509,20.1344516 111.6109,19.6834839 111.6109,19.0302581 C111.6109,18.7486452 111.6219,18.5309032 111.6449,18.378 L123.5749,18.378 C123.7319,18.0092903 123.8779,17.5302581 124.0119,16.9428387 C124.1469,16.2257419 124.2149,15.5521935 124.2149,14.9212258 C124.2149,12.6828387 123.4729,10.9157419 121.9909,9.62187097" id="Fill-15" fill="#1E3149"></path>
                    <polygon id="Fill-17" fill="#0A64FF" points="133.6052 17.8411935 140.4222 14.3737742 134.8552 10.9199032 134.2352 14.3515161"></polygon>
                    <g id="Group-21" transform="translate(142.000000, 9.346935)">
                        <mask id="mask-2" fill="white">
                            <use xlink:href="#path-1"></use>
                        </mask>
                        <g id="Clip-20"></g>
                        <polygon id="Fill-19" fill="#0A64FF" mask="url(#mask-2)" points="7.7004 9.29235484 16.1834 4.97816129 9.4804 0.819774194 0.9974 5.13396774"></polygon>
                    </g>
                    <polygon id="Fill-22" fill="#0A64FF" points="144.447 5.80393548 135.964 10.118129 141.742 13.7026452 150.225 9.38748387 147.417 7.64651613"></polygon>
                    <polygon id="Fill-24" fill="#0A64FF" points="131.8195 27.7340323 139.2965 23.9317742 133.1895 20.1440323"></polygon>
                    <g id="Group-28" transform="translate(135.000000, 0.637258)">
                        <mask id="mask-4" fill="white">
                            <use xlink:href="#path-3"></use>
                        </mask>
                        <g id="Clip-27"></g>
                        <polygon id="Fill-26" fill="#0A64FF" mask="url(#mask-4)" points="1.6506 0.330290323 0.1836 8.46125806 8.1916 4.38803226"></polygon>
                    </g>
                    <polygon id="Fill-29" fill="#0A64FF" points="133.9123 19.101871 140.6163 23.2602581 145.0013 21.0296129 148.3813 19.3109032 141.6773 15.1525161"></polygon>
                </g>
            </g>
        </g>
    </g>
</svg>