<?xml version="1.0" encoding="utf-8"?>
<!-- Generator: Adobe Illustrator 24.0.1, SVG Export Plug-In . SVG Version: 6.00 Build 0)  -->
<svg version="1.1" id="Layer_1" xmlns="http://www.w3.org/2000/svg" xmlns:xlink="http://www.w3.org/1999/xlink" x="0px" y="0px"
	 viewBox="0 0 159 27" style="enable-background:new 0 0 159 27;" xml:space="preserve">
<style type="text/css">
	.st0{fill-rule:evenodd;clip-rule:evenodd;fill:#FFFFFF;}
	.st1{fill-rule:evenodd;clip-rule:evenodd;fill:#0A64FF;}
	.st2{filter:url(#Adobe_OpacityMaskFilter);}
	.st3{mask:url(#mask-2_1_);fill-rule:evenodd;clip-rule:evenodd;fill:#0A64FF;}
	.st4{filter:url(#Adobe_OpacityMaskFilter_1_);}
	.st5{mask:url(#mask-4_1_);fill-rule:evenodd;clip-rule:evenodd;fill:#0A64FF;}
</style>
<title>LOGO</title>
<desc>Created with Sketch.</desc>
<g id="V2">
	<g id="MVP---HOME---DESKTOP---WIDEST" transform="translate(-640.000000, -30.000000)">
		<g id="MENU-BAR">
			<g id="LOGO" transform="translate(640.000000, 29.000000)">
				<path id="Fill-1" class="st0" d="M8.8,14.7c0.4-0.5,1-0.8,1.6-0.8c0.8,0,1.3,0.5,1.5,1.4h7.9c0-2.4-0.8-4.3-2.3-5.6
					c-1.5-1.3-3.6-2-6.1-2C9.5,7.7,7.8,8,6.2,8.7c-1.6,0.7-2.9,1.7-3.9,3c-1,1.3-1.7,2.9-2.1,4.7c-0.2,1-0.2,1.7-0.2,2.3
					c0,2.4,0.7,4.3,2.2,5.7c1.5,1.4,3.5,2.1,6,2.1c2.5,0,4.7-0.7,6.6-2s3.4-3.2,4.2-5.6h-7.9c-0.4,1-1.1,1.4-2,1.4
					c-0.5,0-0.8-0.2-1.1-0.5c-0.3-0.3-0.4-0.8-0.4-1.5c0-0.2,0-0.6,0.1-1.2C8,16,8.3,15.2,8.8,14.7"/>
				<path id="Fill-3" class="st0" d="M36.9,7.8c-1.3,0-2.5,0.3-3.6,0.8c-1.1,0.5-2,1.2-2.8,2.1l1.5-8.5h-7.5l-4.4,24.1h7.5l1.8-10.1
					c0.2-0.8,0.6-1.4,1.2-1.8c0.5-0.4,1.2-0.7,2-0.7c0.7,0,1.2,0.2,1.6,0.6c0.4,0.4,0.6,0.9,0.6,1.6c0,0.1,0,0.4-0.1,0.7l-1.8,9.8
					h7.4l1.9-10.7c0.1-0.8,0.2-1.5,0.2-2.1c0-1.8-0.5-3.2-1.5-4.2C40.2,8.3,38.8,7.8,36.9,7.8"/>
				<path id="Fill-5" class="st0" d="M57.6,17.1c-0.2,1-0.6,1.7-1.2,2.3c-0.6,0.5-1.3,0.8-2.1,0.8c-0.7,0-1.2-0.2-1.7-0.6
					c-0.4-0.4-0.6-1-0.6-1.7c0-0.3,0-0.6,0.1-0.8c0.2-1,0.6-1.7,1.2-2.3c0.6-0.5,1.3-0.8,2.1-0.8c0.7,0,1.2,0.2,1.7,0.6
					c0.4,0.4,0.6,1,0.6,1.7C57.7,16.6,57.6,16.9,57.6,17.1L57.6,17.1z M59.3,7.9l-0.5,2.5c-0.3-0.8-0.9-1.5-1.8-2
					c-0.9-0.5-2-0.7-3.3-0.7c-1.4,0-2.8,0.3-4.1,1c-1.3,0.7-2.4,1.7-3.3,3c-0.9,1.3-1.5,2.9-1.9,4.7c-0.2,1.1-0.3,2-0.3,2.8
					c0,2.3,0.6,4.1,1.7,5.3c1.1,1.3,2.7,1.9,4.7,1.9c1.2,0,2.3-0.2,3.3-0.7c1-0.5,1.8-1.2,2.4-2l-0.5,2.5h7.4l3.4-18.4H59.3z"/>
				<path id="Fill-7" class="st0" d="M80.2,8.7c-1.2,0.6-2.3,1.5-3.3,2.6l0.6-3.4h-7.5l-3.3,18.4h7.5l1.4-7.5
					c0.2-1.2,0.7-2.1,1.4-2.5c0.8-0.5,1.8-0.7,3.3-0.7h2.1l1.4-7.7C82.6,7.8,81.4,8.1,80.2,8.7"/>
				<polygon id="Fill-9" class="st0" points="86.8,2.2 82.5,26.3 89.9,26.3 94.3,2.2 				"/>
				<polygon id="Fill-11" class="st0" points="96.1,9.5 93.1,26.3 100.6,26.3 103.6,9.5 				"/>
				<polygon id="Fill-13" class="st0" points="105,2.2 97.5,2.2 96.4,7.9 103.9,7.9 				"/>
				<path id="Fill-15" class="st0" d="M116.7,15.4h-4.5c0.5-1.4,1.4-2.1,2.7-2.1c0.5,0,0.9,0.1,1.3,0.4c0.3,0.3,0.5,0.7,0.5,1.2
					C116.7,15.1,116.7,15.3,116.7,15.4 M122,9.6c-1.5-1.3-3.5-1.9-6-1.9c-1.9,0-3.6,0.4-5.2,1.1c-1.6,0.7-2.9,1.8-4,3.1
					c-1.1,1.4-1.8,3-2.1,4.8c-0.1,0.8-0.2,1.5-0.2,2.2c0,2.4,0.7,4.2,2.2,5.6c1.5,1.3,3.4,2,5.9,2c2.5,0,4.7-0.6,6.6-1.9
					c1.9-1.3,3.2-2.9,4-4.9h-7.9c-0.5,0.7-1.1,1.1-2,1.1c-0.5,0-0.9-0.1-1.2-0.4c-0.3-0.2-0.4-0.7-0.4-1.4c0-0.3,0-0.5,0-0.7h11.9
					c0.2-0.4,0.3-0.8,0.4-1.4c0.1-0.7,0.2-1.4,0.2-2C124.2,12.7,123.5,10.9,122,9.6"/>
				<polygon id="Fill-17" class="st1" points="133.6,17.8 140.4,14.4 134.9,10.9 134.2,14.4 				"/>
				<g id="Group-21" transform="translate(142.000000, 9.346935)">
					<g id="Clip-20">
					</g>
					<defs>
						<filter id="Adobe_OpacityMaskFilter" filterUnits="userSpaceOnUse" x="1" y="0.8" width="15.2" height="8.5">
							<feColorMatrix  type="matrix" values="1 0 0 0 0  0 1 0 0 0  0 0 1 0 0  0 0 0 1 0"/>
						</filter>
					</defs>
					<mask maskUnits="userSpaceOnUse" x="1" y="0.8" width="15.2" height="8.5" id="mask-2_1_">
						<g class="st2">
							<polygon id="path-1_1_" class="st0" points="1,0.8 16.2,0.8 16.2,9.3 1,9.3 							"/>
						</g>
					</mask>
					<polygon id="Fill-19" class="st3" points="7.7,9.3 16.2,5 9.5,0.8 1,5.1 					"/>
				</g>
				<polygon id="Fill-22" class="st1" points="144.4,5.8 136,10.1 141.7,13.7 150.2,9.4 147.4,7.6 				"/>
				<polygon id="Fill-24" class="st1" points="131.8,27.7 139.3,23.9 133.2,20.1 				"/>
				<g id="Group-28" transform="translate(135.000000, 0.637258)">
					<g id="Clip-27">
					</g>
					<defs>
						<filter id="Adobe_OpacityMaskFilter_1_" filterUnits="userSpaceOnUse" x="0.2" y="0.3" width="8" height="8.1">
							<feColorMatrix  type="matrix" values="1 0 0 0 0  0 1 0 0 0  0 0 1 0 0  0 0 0 1 0"/>
						</filter>
					</defs>
					<mask maskUnits="userSpaceOnUse" x="0.2" y="0.3" width="8" height="8.1" id="mask-4_1_">
						<g class="st4">
							<polygon id="path-3_1_" class="st0" points="0.2,0.3 8.2,0.3 8.2,8.5 0.2,8.5 							"/>
						</g>
					</mask>
					<polygon id="Fill-26" class="st5" points="1.7,0.3 0.2,8.5 8.2,4.4 					"/>
				</g>
				<polygon id="Fill-29" class="st1" points="133.9,19.1 140.6,23.3 145,21 148.4,19.3 141.7,15.2 				"/>
			</g>
		</g>
	</g>
</g>
</svg>
