<svg id="Layer_1" data-name="Layer 1" xmlns="http://www.w3.org/2000/svg" viewBox="0 0 400 400"><defs><style>.cls-1{fill:#009ade;}.cls-2{fill:#002f87;}.cls-3{fill:#002169;}</style></defs><title>Artboard 1 copy</title><path class="cls-1" d="M240.55,253H222.5a2.5,2.5,0,0,0-2.47,2.11l-7.3,46.28a1.51,1.51,0,0,0,1.49,1.74h9.26a1.75,1.75,0,0,0,1.73-1.48l2.07-13.12a2.51,2.51,0,0,1,2.48-2.12h5.71c11.88,0,18.74-5.75,20.54-17.15.8-5,0-8.91-2.31-11.65C251.14,254.59,246.59,253,240.55,253Zm2.08,16.9c-1,6.48-5.93,6.48-10.71,6.48h-2.73l1.91-12.1a1.51,1.51,0,0,1,1.49-1.27h1.25c3.25,0,6.33,0,7.92,1.86C242.71,266,243,267.62,242.63,269.9Z"/><path class="cls-2" d="M111.84,253h-18a2.51,2.51,0,0,0-2.48,2.11L84,301.39a1.51,1.51,0,0,0,1.49,1.74h8.62A2.5,2.5,0,0,0,96.59,301l2-12.48a2.51,2.51,0,0,1,2.48-2.12h5.71c11.89,0,18.75-5.75,20.54-17.15.81-5,0-8.91-2.3-11.65C122.42,254.59,117.87,253,111.84,253Zm2.08,16.9c-1,6.48-5.94,6.48-10.72,6.48h-2.72l1.91-12.1a1.5,1.5,0,0,1,1.48-1.27h1.25c3.26,0,6.33,0,7.92,1.86C114,266,114.28,267.62,113.92,269.9Z"/><path class="cls-2" d="M165.78,269.69h-8.65a1.5,1.5,0,0,0-1.48,1.27l-.38,2.42-.61-.88c-1.87-2.71-6-3.62-10.2-3.62-9.55,0-17.71,7.23-19.29,17.38a16.31,16.31,0,0,0,3.21,13.28c2.64,3.1,6.4,4.39,10.89,4.39a16.55,16.55,0,0,0,12-4.94l-.38,2.4a1.5,1.5,0,0,0,1.48,1.74h7.78a2.51,2.51,0,0,0,2.48-2.12l4.67-29.58A1.5,1.5,0,0,0,165.78,269.69Zm-12.05,16.82a9.62,9.62,0,0,1-9.75,8.25,7.27,7.27,0,0,1-5.8-2.33,7.35,7.35,0,0,1-1.36-6.07,9.67,9.67,0,0,1,9.69-8.31,7.29,7.29,0,0,1,5.76,2.35A7.45,7.45,0,0,1,153.73,286.51Z"/><path class="cls-1" d="M294.49,269.69h-8.64a1.51,1.51,0,0,0-1.49,1.27l-.38,2.42-.6-.88c-1.87-2.71-6-3.62-10.21-3.62-9.54,0-17.7,7.23-19.29,17.38a16.35,16.35,0,0,0,3.22,13.28c2.64,3.1,6.4,4.39,10.88,4.39A16.56,16.56,0,0,0,280,299l-.39,2.4a1.51,1.51,0,0,0,1.49,1.74h7.78a2.52,2.52,0,0,0,2.48-2.12L296,271.43A1.51,1.51,0,0,0,294.49,269.69Zm-12,16.82a9.64,9.64,0,0,1-9.75,8.25,6.69,6.69,0,0,1-7.16-8.4,9.67,9.67,0,0,1,9.68-8.31A7.26,7.26,0,0,1,281,280.4,7.41,7.41,0,0,1,282.45,286.51Z"/><path class="cls-2" d="M211.8,269.69h-8.68a2.5,2.5,0,0,0-2.08,1.1l-12,17.65-5.08-17a2.51,2.51,0,0,0-2.4-1.79H173a1.5,1.5,0,0,0-1.42,2l9.56,28.07-9,12.7a1.5,1.5,0,0,0,1.22,2.37h8.68a2.5,2.5,0,0,0,2.06-1.08L213,272.05A1.51,1.51,0,0,0,211.8,269.69Z"/><path class="cls-1" d="M304.68,254.27l-7.41,47.12a1.51,1.51,0,0,0,1.49,1.74h7.45a2.5,2.5,0,0,0,2.47-2.12L316,254.74A1.51,1.51,0,0,0,314.5,253h-8.34A1.5,1.5,0,0,0,304.68,254.27Z"/><path class="cls-1" d="M256.27,123.22c1.83-11.65,0-19.57-6.31-26.75-6.94-7.91-19.47-11.29-35.5-11.29H167.92a6.65,6.65,0,0,0-6.58,5.62L142,213.68a4,4,0,0,0,3.95,4.62h28.73l-2,12.58a3.49,3.49,0,0,0,3.45,4h24.21a5.84,5.84,0,0,0,5.76-4.92l.24-1.23,4.56-28.93.29-1.6a5.83,5.83,0,0,1,5.75-4.92h3.63c23.46,0,41.83-9.53,47.2-37.09,2.24-11.52,1.08-21.14-4.85-27.9a23.28,23.28,0,0,0-6.63-5.11h0"/><path class="cls-3" d="M256.27,123.22c1.83-11.65,0-19.57-6.31-26.75-6.94-7.91-19.47-11.29-35.5-11.29H167.92a6.65,6.65,0,0,0-6.58,5.62L142,213.68a4,4,0,0,0,3.95,4.62h28.73l7.22-45.76-.23,1.43a6.64,6.64,0,0,1,6.56-5.62h13.65c26.82,0,47.82-10.89,53.95-42.4.18-.94.34-1.84.48-2.73"/><path class="cls-2" d="M189.61,123.38a5.8,5.8,0,0,1,3.24-4.35,5.74,5.74,0,0,1,2.51-.57h36.48a76.65,76.65,0,0,1,12,.87c1.05.17,2.07.37,3.07.59s2,.47,2.9.74l1.38.43a33.31,33.31,0,0,1,5,2.13c1.83-11.65,0-19.57-6.31-26.75-6.94-7.91-19.47-11.29-35.5-11.29H167.92a6.65,6.65,0,0,0-6.58,5.62L142,213.68a4,4,0,0,0,3.95,4.62h28.73l7.22-45.76Z"/></svg>