<svg id="Layer_1" data-name="Layer 1" xmlns="http://www.w3.org/2000/svg" viewBox="0 0 600 400"><defs><style>.cls-1{fill:#009ade;}.cls-2{fill:#002f87;}.cls-3{fill:#002169;}</style></defs><title>Artboard 1 copy 2</title><path class="cls-1" d="M414.5,170.37H391.22A3.23,3.23,0,0,0,388,173.1l-9.42,59.69a1.94,1.94,0,0,0,1.92,2.24h11.94a2.26,2.26,0,0,0,2.24-1.91l2.67-16.92a3.22,3.22,0,0,1,3.19-2.73h7.37c15.33,0,24.18-7.42,26.49-22.13,1.05-6.43.05-11.49-3-15C428.15,172.42,422.29,170.37,414.5,170.37Zm2.69,21.8c-1.28,8.35-7.66,8.35-13.83,8.35h-3.51l2.46-15.6a1.94,1.94,0,0,1,1.92-1.63h1.61c4.2,0,8.17,0,10.21,2.39C417.28,187.11,417.65,189.23,417.19,192.17Z"/><path class="cls-2" d="M248.47,170.37H225.19A3.23,3.23,0,0,0,222,173.1l-9.42,59.69A1.94,1.94,0,0,0,214.5,235h11.12a3.23,3.23,0,0,0,3.19-2.73l2.54-16.1a3.22,3.22,0,0,1,3.19-2.73h7.37c15.33,0,24.18-7.42,26.5-22.13,1-6.43,0-11.49-3-15C262.13,172.42,256.26,170.37,248.47,170.37Zm2.69,21.8c-1.28,8.35-7.66,8.35-13.83,8.35h-3.51l2.46-15.6a1.94,1.94,0,0,1,1.92-1.63h1.61c4.2,0,8.17,0,10.21,2.39C251.25,187.11,251.62,189.23,251.16,192.17Z"/><path class="cls-2" d="M318.05,191.9H306.9a2,2,0,0,0-1.92,1.64l-.49,3.12-.78-1.13c-2.41-3.51-7.79-4.68-13.16-4.68-12.32,0-22.84,9.33-24.88,22.42-1.07,6.53.44,12.77,4.15,17.13,3.4,4,8.25,5.66,14,5.66a21.37,21.37,0,0,0,15.44-6.37l-.5,3.1a1.94,1.94,0,0,0,1.92,2.24h10a3.24,3.24,0,0,0,3.2-2.73l6-38.16A1.94,1.94,0,0,0,318.05,191.9Zm-15.54,21.7a12.42,12.42,0,0,1-12.58,10.64c-3.23,0-5.82-1-7.48-3a9.47,9.47,0,0,1-1.75-7.83,12.47,12.47,0,0,1,12.49-10.72,9.39,9.39,0,0,1,7.43,3A9.61,9.61,0,0,1,302.51,213.6Z"/><path class="cls-1" d="M484.08,191.9H472.93a2,2,0,0,0-1.92,1.64l-.49,3.12-.78-1.13c-2.41-3.51-7.79-4.68-13.16-4.68-12.32,0-22.84,9.33-24.88,22.42-1.07,6.53.44,12.77,4.14,17.13,3.41,4,8.26,5.66,14,5.66a21.33,21.33,0,0,0,15.43-6.37l-.49,3.1a1.94,1.94,0,0,0,1.91,2.24h10a3.24,3.24,0,0,0,3.2-2.73l6-38.16A1.94,1.94,0,0,0,484.08,191.9Zm-15.54,21.7A12.42,12.42,0,0,1,456,224.24c-3.23,0-5.82-1-7.48-3a9.47,9.47,0,0,1-1.75-7.83,12.47,12.47,0,0,1,12.49-10.72,9.39,9.39,0,0,1,7.43,3A9.61,9.61,0,0,1,468.54,213.6Z"/><path class="cls-2" d="M377.41,191.9h-11.2a3.25,3.25,0,0,0-2.68,1.42l-15.45,22.76-6.55-21.87a3.24,3.24,0,0,0-3.1-2.31h-11a1.94,1.94,0,0,0-1.84,2.57l12.34,36.21-11.61,16.37a1.94,1.94,0,0,0,1.59,3.06h11.19a3.25,3.25,0,0,0,2.66-1.39L379,195A1.94,1.94,0,0,0,377.41,191.9Z"/><path class="cls-1" d="M497.21,172l-9.55,60.78a1.93,1.93,0,0,0,1.92,2.24h9.61a3.23,3.23,0,0,0,3.19-2.73l9.42-59.69a1.93,1.93,0,0,0-1.92-2.24H499.13A1.94,1.94,0,0,0,497.21,172Z"/><path class="cls-1" d="M167,174.63c1.26-8,0-13.49-4.35-18.44-4.78-5.44-13.41-7.78-24.46-7.78H106.09a4.59,4.59,0,0,0-4.53,3.87L88.21,237a2.75,2.75,0,0,0,2.72,3.18h19.8l-1.37,8.66a2.41,2.41,0,0,0,2.38,2.79h16.68a4,4,0,0,0,4-3.39l.16-.85,3.15-19.93.2-1.1a4,4,0,0,1,4-3.39h2.5c16.16,0,28.82-6.57,32.52-25.56,1.55-7.94.75-14.56-3.34-19.22a15.83,15.83,0,0,0-4.57-3.52h0"/><path class="cls-3" d="M167,174.63c1.26-8,0-13.49-4.35-18.44-4.78-5.44-13.41-7.78-24.46-7.78H106.09a4.59,4.59,0,0,0-4.53,3.87L88.21,237a2.75,2.75,0,0,0,2.72,3.18h19.8l5-31.53-.16,1a4.59,4.59,0,0,1,4.52-3.88h9.41c18.48,0,32.95-7.51,37.18-29.22.12-.64.23-1.26.32-1.87"/><path class="cls-2" d="M121,174.73a4,4,0,0,1,2.23-3,3.93,3.93,0,0,1,1.74-.4h25.13a52.13,52.13,0,0,1,8.29.61c.73.11,1.44.25,2.12.4s1.35.32,2,.51c.32.1.64.19.95.3a21.79,21.79,0,0,1,3.47,1.47c1.26-8,0-13.49-4.35-18.44-4.78-5.44-13.41-7.78-24.46-7.78H106.09a4.59,4.59,0,0,0-4.53,3.87L88.21,237a2.75,2.75,0,0,0,2.72,3.18h19.8l5-31.53Z"/></svg>